<?xml version="1.0" encoding="UTF-8" standalone="no"?>
<!-- Created with Inkscape (http://www.inkscape.org/) -->

<svg
   version="1.1"
   id="svg2"
   width="2560"
   height="800"
   viewBox="0 0 2560 800"
   sodipodi:docname="BitCorn_1C White Horizontal.eps"
   xmlns:inkscape="http://www.inkscape.org/namespaces/inkscape"
   xmlns:sodipodi="http://sodipodi.sourceforge.net/DTD/sodipodi-0.dtd"
   xmlns="http://www.w3.org/2000/svg"
   xmlns:svg="http://www.w3.org/2000/svg">
  <defs
     id="defs6" />
  <sodipodi:namedview
     id="namedview4"
     pagecolor="#ffffff"
     bordercolor="#000000"
     borderopacity="0.25"
     inkscape:showpageshadow="2"
     inkscape:pageopacity="0.0"
     inkscape:pagecheckerboard="0"
     inkscape:deskcolor="#d1d1d1" />
  <g
     id="g8"
     inkscape:groupmode="layer"
     inkscape:label="ink_ext_XXXXXX"
     transform="matrix(1.3333333,0,0,-1.3333333,0,800)">
    <g
       id="g10"
       transform="scale(0.1)">
      <path
         d="m 6139.41,3119.27 h 374.47 c 304.09,0 336.92,166.45 336.92,238.01 0,167.03 -100.57,244.83 -316.47,244.83 h -394.92 z m -3.4,-914.24 h 487 c 267.2,0 323.28,144.28 323.28,265.31 0,164.28 -122.8,258.49 -336.91,258.49 h -473.37 z m -581.5,-407.48 v 2215.51 l 1147.34,3.38 c 249.72,0 439.2,-56.13 563.16,-166.83 111,-99.13 167.28,-239.52 167.28,-417.28 0,-222.87 -117.4,-382.87 -339.49,-462.68 l -72.82,-26.17 75.25,-18.03 c 154.16,-36.94 272.29,-102.3 351.11,-194.26 74.4,-86.8 112.12,-195.22 112.12,-322.27 0,-187.02 -63.32,-334.24 -188.19,-437.59 -139.33,-115.31 -352.86,-173.78 -634.66,-173.78 h -1181.1"
         style="fill:#fffdf6;fill-opacity:1;fill-rule:nonzero;stroke:none"
         id="path12" />
      <path
         d="m 7741.12,1797.55 v 1327.84 l 588.31,252.74 V 1797.55 h -588.31"
         style="fill:#fffdf6;fill-opacity:1;fill-rule:nonzero;stroke:none"
         id="path14" />
      <path
         d="m 9337.31,1746.39 c -365.7,0 -567.1,197.75 -567.1,556.82 v 790.63 h -249 v 342 l 357.34,192.86 277.87,303.47 h 205.5 v -454.75 h 515.1 v -383.58 h -515.1 v -736.07 c 0,-123.08 71.85,-193.67 197.12,-193.67 94.59,0 210.03,14.87 343.52,44.21 l -60.57,-372.55 c -127.57,-47.01 -278.02,-89.37 -504.68,-89.37"
         style="fill:#fffdf6;fill-opacity:1;fill-rule:nonzero;stroke:none"
         id="path16" />
      <path
         d="m 11217.6,1732.73 c -340.8,0 -630.4,105.98 -837.6,306.48 -215.8,208.81 -329.8,511.24 -329.8,874.59 0,358.76 118.5,658.72 342.7,867.45 207.7,193.44 501.8,299.98 828.1,299.98 304.5,0 496.4,-41.38 643.3,-83.3 12.6,-178.44 25.4,-422.59 20.4,-494.69 -175.1,59.42 -367,112.51 -585.3,112.51 -178.4,0 -328.9,-53.99 -435.1,-156.12 -125,-120.15 -188.3,-302.64 -188.3,-542.43 0,-240.84 64.1,-426.13 190.6,-550.73 109.5,-107.85 262.7,-164.85 443,-164.85 181.9,0 366.7,28.26 564.4,86.33 7.6,-58.9 3.1,-258.56 -6.7,-443.65 -177.4,-79.15 -367.1,-111.57 -649.7,-111.57"
         style="fill:#fffdf6;fill-opacity:1;fill-rule:nonzero;stroke:none"
         id="path18" />
      <path
         d="m 12939.2,3097.24 c -220.6,0 -347.2,-166.32 -347.2,-456.33 0,-147.73 30.1,-262.99 89.4,-342.56 58.9,-78.89 146.8,-120.59 254.4,-120.59 106.4,0 194.5,41.63 254.6,120.38 61.4,80.5 92.6,195.83 92.6,342.77 0,145.99 -30.2,259.73 -89.6,338.03 -58.7,77.4 -146.7,118.3 -254.2,118.3 z m 0,-1357.69 c -262.9,0 -503.1,85.73 -676.2,241.4 -183,164.53 -279.7,392.75 -279.7,659.96 0,535.04 384.1,894.52 955.9,894.52 274.6,0 510.4,-82.27 682.1,-237.91 176.9,-160.44 270.4,-387.49 270.4,-656.61 0,-269.24 -94,-497.5 -271.8,-660.1 -170.1,-155.57 -411.9,-241.26 -680.7,-241.26"
         style="fill:#fffdf6;fill-opacity:1;fill-rule:nonzero;stroke:none"
         id="path20" />
      <path
         d="m 14023.2,1797.55 v 1651.73 l 540.5,62.83 v -420.93 l 1.1,4.38 c 82.4,304.33 304.9,429.65 622.4,429.65 10.9,0 28.7,-1.64 44.9,-3.69 l -6.3,-576.91 c -78.2,22.94 -144.2,40.06 -226.2,40.06 -243,0 -388.1,-164.22 -388.1,-439.29 v -747.83 h -588.3"
         style="fill:#fffdf6;fill-opacity:1;fill-rule:nonzero;stroke:none"
         id="path22" />
      <path
         d="m 16596.2,1797.55 v 1000.27 c 0,170.4 -103,272.13 -275.5,272.13 -175.5,0 -302.8,-148.87 -302.8,-353.99 v -918.41 h -588.3 v 1651.66 l 557.5,62.98 v -339.75 l 42.6,66.66 c 68.2,106.85 232.7,286.11 567.3,286.11 356.9,0 587.5,-241.34 587.5,-614.83 V 1797.55 h -588.3"
         style="fill:#fffdf6;fill-opacity:1;fill-rule:nonzero;stroke:none"
         id="path24" />
      <path
         d="m 7680.22,3819.69 248.3,430.05 430.05,-248.29 -248.29,-430.05 -430.06,248.29"
         style="fill:#fffdf6;fill-opacity:1;fill-rule:nonzero;stroke:none"
         id="path26" />
      <path
         d="m 3800.99,3092.66 c 38.45,10.31 -1204.72,728.05 -1194.41,689.6 -10.31,38.45 -728.05,-1204.72 -689.6,-1194.41 -38.45,-10.31 1204.71,-728.05 1194.41,-689.6 10.3,-38.45 728.05,1204.72 689.6,1194.41"
         style="fill:#fffdf6;fill-opacity:1;fill-rule:nonzero;stroke:none"
         id="path28" />
      <path
         d="m 4546.08,2664.82 c 26.3,17.36 -596.19,376.75 -598.07,345.29 1.88,31.46 -716.9,-1213.5 -690.6,-1196.14 -26.3,-17.36 596.18,-376.75 598.07,-345.3 -1.89,-31.45 716.9,1213.51 690.6,1196.15"
         style="fill:#fffdf6;fill-opacity:1;fill-rule:nonzero;stroke:none"
         id="path30" />
      <path
         d="m 3780.04,4102.98 c -17.27,26.17 -374.84,-593.16 -343.54,-595.04 -31.3,1.88 1207.36,-713.26 1190.08,-687.1 17.28,-26.16 374.85,593.17 343.55,595.04 31.3,-1.87 -1207.36,713.27 -1190.09,687.1"
         style="fill:#fffdf6;fill-opacity:1;fill-rule:nonzero;stroke:none"
         id="path32" />
      <path
         d="m 3036.11,4532.54 c -5.1,19.05 -360.8,-597.02 -341.74,-591.92 -19.06,-5.1 597.02,-360.8 591.91,-341.74 5.11,-19.06 360.8,597.02 341.75,591.91 19.05,5.11 -597.02,360.8 -591.92,341.75"
         style="fill:#fffdf6;fill-opacity:1;fill-rule:nonzero;stroke:none"
         id="path34" />
    </g>
  </g>
</svg>
